<svg width="15" height="15" viewBox="0 0 15 15" fill="none" xmlns="http://www.w3.org/2000/svg">
<path d="M12.7 5.55005H6.85005C6.13208 5.55005 5.55005 6.13208 5.55005 6.85005V12.7C5.55005 13.418 6.13208 14 6.85005 14H12.7C13.418 14 14 13.418 14 12.7V6.85005C14 6.13208 13.418 5.55005 12.7 5.55005Z" stroke="#ffffff" stroke-width="1.2" stroke-linecap="round" stroke-linejoin="round"/>
<path d="M2.95 9.45H2.3C1.95522 9.45 1.62456 9.31304 1.38076 9.06924C1.13696 8.82544 1 8.49478 1 8.15V2.3C1 1.95522 1.13696 1.62456 1.38076 1.38076C1.62456 1.13696 1.95522 1 2.3 1H8.15C8.49478 1 8.82544 1.13696 9.06924 1.38076C9.31304 1.62456 9.45 1.95522 9.45 2.3V2.95" stroke="#ffffff" stroke-width="1.2" stroke-linecap="round" stroke-linejoin="round"/>
</svg>
