<svg width="110" height="100" viewBox="0 0 110 100" fill="none" xmlns="http://www.w3.org/2000/svg">
<path fill-rule="evenodd" clip-rule="evenodd" d="M39.2048 13.862C47.3052 11.4291 54.643 19.0607 62.7744 21.3698C72.0791 24.0122 83.058 21.8491 90.2106 28.3464C98.0769 35.4921 104.231 46.669 102.079 57.0738C99.9469 67.3805 88.4898 72.415 79.8461 78.4482C73.474 82.8959 66.2534 84.8211 58.8655 87.2365C50.9411 89.8274 42.8269 96.3352 35.1697 93.0551C27.502 89.7706 27.6256 78.8617 23.0538 71.8961C18.4516 64.8844 8.22561 60.6097 8.37016 52.2242C8.51441 43.8561 18.4725 39.6304 23.7226 33.0987C29.0086 26.5222 31.1176 16.2909 39.2048 13.862Z" fill="#FF640E" fill-opacity="0.08"/>
<path d="M85.6522 19.6958V29.1306H66.7827H45.2175H26.3479V19.6958C26.3479 18.9545 26.9544 18.348 27.6957 18.348H84.3044C85.0457 18.348 85.6522 18.9545 85.6522 19.6958Z" fill="#FF640E" fill-opacity="0.08"/>
<path d="M45.2175 29.1305H26.3479V45.3044H45.2175V29.1305Z" fill="#FF640E" fill-opacity="0.04"/>
<path d="M84.3043 17.0001H27.6957C26.209 17.0001 25 18.2091 25 19.6958V76.3045C25 77.7911 26.209 79.0001 27.6957 79.0001H84.3043C85.791 79.0001 87 77.7911 87 76.3045V19.6958C87 18.2091 85.791 17.0001 84.3043 17.0001ZM46.5652 60.1306V46.6523H65.4348V60.1306H46.5652ZM65.4348 62.8262V76.3045H46.5652V62.8262H65.4348ZM65.4348 30.4784V43.9566H46.5652V30.4784H65.4348ZM84.3043 30.4784V43.9566H68.1304V30.4784H84.3043ZM43.8696 43.9566H27.6957V30.4784H43.8696V43.9566ZM27.6957 46.6523H43.8696V60.1306H27.6957V46.6523ZM68.1304 46.6523H84.3043V60.1306H68.1304V46.6523ZM84.3043 19.6958V27.7827H27.6957V19.6958H84.3043ZM27.6957 62.8262H43.8696V76.3045H27.6957V62.8262ZM68.1304 76.3045V62.8262H84.3043V76.3045H68.1304Z" fill="#FF640E"/>
</svg>
