<svg width="110" height="100" viewBox="0 0 110 100" fill="none" xmlns="http://www.w3.org/2000/svg">
<path fill-rule="evenodd" clip-rule="evenodd" d="M38.7314 13.4386C46.8318 11.0057 54.1696 18.6374 62.301 20.9465C71.6057 23.5888 82.5846 21.4258 89.7372 27.9231C97.6035 35.0687 103.758 46.2456 101.606 56.6504C99.4735 66.9572 88.0164 71.9917 79.3728 78.0249C73.0007 82.4726 65.78 84.3977 58.3921 86.8132C50.4677 89.4041 42.3535 95.9119 34.6963 92.6318C27.0286 89.3472 27.1523 78.4384 22.5804 71.4728C17.9782 64.4611 7.75222 60.1863 7.89677 51.8009C8.04103 43.4327 17.9991 39.2071 23.2492 32.6754C28.5352 26.0989 30.6442 15.8675 38.7314 13.4386Z" fill="#FF640E" fill-opacity="0.08"/>
<path d="M49.3324 64.6646V69.6642" stroke="#172A68" stroke-width="2" stroke-linecap="round" stroke-linejoin="round"/>
<path fill-rule="evenodd" clip-rule="evenodd" d="M71.254 82.9969L73.5909 67.8068C74.0027 65.13 72.2083 62.612 69.5438 62.1276L55.9987 59.6648V49.6655C55.9987 47.8247 54.5064 46.3324 52.6656 46.3324V46.3324C50.8247 46.3324 49.3324 47.8247 49.3324 49.6655V60.3286V64.6645H45.9993C44.1585 64.6645 42.6662 66.1568 42.6662 67.9976V72.8228C42.6662 75.0934 43.439 77.2964 44.8575 79.0695L48.0019 83L71.254 82.9969V82.9969Z" stroke="#172A68" stroke-width="2" stroke-linecap="round" stroke-linejoin="round"/>
<path d="M44.0023 54.6624C43.1525 53.1923 42.6662 51.4857 42.6662 49.6656C42.6662 44.1431 47.1431 39.6663 52.6656 39.6663C58.188 39.6663 62.6649 44.1431 62.6649 49.6656C62.6649 51.4867 62.178 53.1942 61.3273 54.6649" stroke="#172A68" stroke-width="2" stroke-linecap="round" stroke-linejoin="round"/>
<path d="M37.3838 56.325C36.4937 54.2854 36 52.0331 36 49.6655C36 40.4614 43.4614 33 52.6655 33C61.8697 33 69.3311 40.4614 69.3311 49.6655C69.3311 52.0358 68.8363 54.2905 67.9443 56.3319" stroke="#172A68" stroke-width="2" stroke-linecap="round" stroke-linejoin="round"/>
</svg>
