<svg width="18" height="18" viewBox="0 0 18 18" fill="none" xmlns="http://www.w3.org/2000/svg">
<path d="M3.13334 8.46667V1" stroke="#FF640E" stroke-width="1.5" stroke-linecap="round" stroke-linejoin="round"/>
<path d="M3.13334 17V14.8667" stroke="#FF640E" stroke-width="1.5" stroke-linecap="round" stroke-linejoin="round"/>
<path d="M9 2.6V1" stroke="#FF640E" stroke-width="1.5" stroke-linecap="round" stroke-linejoin="round"/>
<path d="M9 17V9" stroke="#FF640E" stroke-width="1.5" stroke-linecap="round" stroke-linejoin="round"/>
<path fill-rule="evenodd" clip-rule="evenodd" d="M3.13333 10.6C4.31147 10.6 5.26667 11.5552 5.26667 12.7333C5.26667 13.9114 4.31147 14.8666 3.13333 14.8666C1.9552 14.8666 1 13.9114 1 12.7333C1 11.5552 1.9552 10.6 3.13333 10.6V10.6Z" stroke="#FF640E" stroke-width="1.5" stroke-linecap="round" stroke-linejoin="round"/>
<path d="M14.8667 8.46667V1" stroke="#FF640E" stroke-width="1.5" stroke-linecap="round" stroke-linejoin="round"/>
<path d="M14.8667 17V14.8667" stroke="#FF640E" stroke-width="1.5" stroke-linecap="round" stroke-linejoin="round"/>
<path fill-rule="evenodd" clip-rule="evenodd" d="M14.8667 10.6C16.0448 10.6 17 11.5552 17 12.7333C17 13.9114 16.0448 14.8666 14.8667 14.8666C13.6885 14.8666 12.7333 13.9114 12.7333 12.7333C12.7333 11.5552 13.6885 10.6 14.8667 10.6V10.6Z" stroke="#FF640E" stroke-width="1.5" stroke-linecap="round" stroke-linejoin="round"/>
<path fill-rule="evenodd" clip-rule="evenodd" d="M9 4.73328C10.1781 4.73328 11.1333 5.68848 11.1333 6.86661C11.1333 8.04474 10.1781 8.99994 9 8.99994C7.82187 8.99994 6.86667 8.04474 6.86667 6.86661C6.86667 5.68848 7.82187 4.73328 9 4.73328V4.73328Z" stroke="#FF640E" stroke-width="1.5" stroke-linecap="round" stroke-linejoin="round"/>
</svg>
