<svg width="21" height="18" viewBox="0 0 21 18" fill="none" xmlns="http://www.w3.org/2000/svg">
<path d="M4.2946 13.4444H3.40571C2.93421 13.4444 2.48203 13.2571 2.14863 12.9237C1.81523 12.5903 1.62793 12.1382 1.62793 11.6667V2.77778C1.62793 2.30628 1.81523 1.8541 2.14863 1.5207C2.48203 1.1873 2.93421 1 3.40571 1H17.6279C18.0994 1 18.5516 1.1873 18.885 1.5207C19.2184 1.8541 19.4057 2.30628 19.4057 2.77778V11.6667C19.4057 12.1382 19.2184 12.5903 18.885 12.9237C18.5516 13.2571 18.0994 13.4444 17.6279 13.4444H16.739" stroke="#FF640E" stroke-width="2" stroke-linecap="round" stroke-linejoin="round"/>
<path d="M10.5167 11.6663L14.9612 16.9996H6.07227L10.5167 11.6663Z" stroke="#FF640E" stroke-width="2" stroke-linecap="round" stroke-linejoin="round"/>
</svg>
