<svg width="15" height="16" viewBox="0 0 15 16" fill="none" xmlns="http://www.w3.org/2000/svg">
<path d="M1.45453 3.80005H2.84847H14" stroke="#0C0E33" stroke-opacity="0.45" stroke-width="1.2" stroke-linecap="round" stroke-linejoin="round"/>
<path d="M4.93936 3.8V2.4C4.93936 2.0287 5.08622 1.6726 5.34764 1.41005C5.60905 1.1475 5.96361 1 6.3333 1H9.12118C9.49088 1 9.84543 1.1475 10.1068 1.41005C10.3683 1.6726 10.5151 2.0287 10.5151 2.4V3.8M12.606 3.8V13.6C12.606 13.9713 12.4592 14.3274 12.1978 14.5899C11.9363 14.8525 11.5818 15 11.2121 15H4.24239C3.87269 15 3.51814 14.8525 3.25673 14.5899C2.99531 14.3274 2.84845 13.9713 2.84845 13.6V3.8H12.606Z" stroke="#0C0E33" stroke-opacity="0.45" stroke-width="1.2" stroke-linecap="round" stroke-linejoin="round"/>
<path d="M6.33331 7.30005V11.5" stroke="#0C0E33" stroke-opacity="0.45" stroke-width="1.2" stroke-linecap="round" stroke-linejoin="round"/>
<path d="M9.12128 7.30005V11.5" stroke="#0C0E33" stroke-opacity="0.45" stroke-width="1.2" stroke-linecap="round" stroke-linejoin="round"/>
</svg>
