<svg width="16" height="16" viewBox="0 0 16 16" fill="none" xmlns="http://www.w3.org/2000/svg">
<path d="M13.9985 5.90002H7.72579C6.95594 5.90002 6.33185 6.52683 6.33185 7.30002V13.6C6.33185 14.3732 6.95594 15 7.72579 15H13.9985C14.7684 15 15.3925 14.3732 15.3925 13.6V7.30002C15.3925 6.52683 14.7684 5.90002 13.9985 5.90002Z" stroke="#0C0E33" stroke-opacity="0.45" stroke-width="1.2" stroke-linecap="round" stroke-linejoin="round"/>
<path d="M3.54404 10.1H2.84707C2.47737 10.1 2.12282 9.9525 1.8614 9.68995C1.59999 9.4274 1.45313 9.0713 1.45312 8.7V2.4C1.45312 2.0287 1.59999 1.6726 1.8614 1.41005C2.12282 1.1475 2.47737 1 2.84707 1H9.1198C9.48949 1 9.84405 1.1475 10.1055 1.41005C10.3669 1.6726 10.5137 2.0287 10.5137 2.4V3.1" stroke="#0C0E33" stroke-opacity="0.45" stroke-width="1.2" stroke-linecap="round" stroke-linejoin="round"/>
</svg>
